<?xml version="1.0" encoding="utf-8"?>
<!-- Generator: Adobe Illustrator 19.0.0, SVG Export Plug-In . SVG Version: 6.00 Build 0)  -->
<svg version="1.1" id="Layer_1" xmlns="http://www.w3.org/2000/svg" xmlns:xlink="http://www.w3.org/1999/xlink" x="0px" y="0px"
	 viewBox="0 0 157.1 51.3" style="enable-background:new 0 0 157.1 51.3;" xml:space="preserve">
<style type="text/css">
	.st0{fill:#00AEEF;}
</style>
<g>
	<path class="st0" d="M127.8,51.2h-15.4V36.5H87.5L72.9,51.3l-15.4-0.1l39.4-39.7L108.6,0h7.6h11.6V51.2L127.8,51.2z M112.4,25.2
		V11.5l0,0L98.7,25.2H112.4L112.4,25.2z"/>
	<polygon class="st0" points="157.1,51.3 141.6,51.2 141.6,0 157.1,0 157.1,51.3 	"/>
	<polygon class="st0" points="140.4,51 129,51 129,39.6 140.4,39.6 140.4,51 	"/>
	<polygon points="106.5,0 95.2,11.5 73.3,11.5 73.3,33.7 57.8,49.1 57.8,11.5 41.1,11.5 52.4,0 106.5,0 	"/>
	<polygon points="56.5,51.2 41.1,51.2 41.1,12.5 56.5,12.5 56.5,51.2 	"/>
	<polygon points="50.8,0 39.5,11.5 15.4,11.5 15.4,17.8 33.2,17.8 22.8,28.2 15.4,28.2 15.4,35.6 0,51.2 0,0 50.8,0 	"/>
</g>
</svg>
